<svg xmlns="http://www.w3.org/2000/svg" viewBox="0 3.5 64 83" width="64" height="83" data-tooth-fdi="27" data-view="lateral" role="img">
  <title>Tooth 27 — permanent (adult) upper left second molar — lateral view</title>
  <desc>Standalone lateral (buccal/facial) anatomy for tooth 27 (permanent (adult), upper left second molar), generated from the app's anatomy registries. Base &quot;no record&quot; status only — no clinical status tint applied.</desc>
  <g transform="translate(0 88) scale(1 -1) translate(64 0) scale(-1 1)">
    <path d="M26.1 22.5 C26.1 23.1 26.0 22.9 26.1 24.5 C26.1 26.3 26.2 33.1 26.7 36.6 C27.2 40.0 29.2 45.8 29.7 48.7 C30.1 51.1 29.9 55.2 30.0 56.5 C30.2 57.7 30.8 58.8 31.0 59.0 C31.2 58.8 31.8 58.8 32.1 59.0 C32.3 58.8 32.9 57.7 33.0 56.5 C33.2 55.2 32.8 51.1 33.3 48.7 C33.8 45.8 36.1 40.0 36.8 36.6 C37.5 33.1 37.8 26.3 37.9 24.5 C38.1 22.9 37.9 23.1 37.9 22.5 C36.6 22.3 27.4 22.3 26.1 22.5 Z" fill="#f0e6d2" stroke="#a1866a" stroke-width="1.5" stroke-linecap="round" stroke-linejoin="round" data-part="root" data-root-index="0"/>
    <path d="M35.0 22.5 C35.0 23.1 34.6 23.2 35.0 24.5 C35.3 26.0 36.9 31.4 38.0 34.2 C39.1 36.9 42.5 41.6 42.5 43.8 C42.6 45.8 38.7 48.6 38.3 49.6 C38.0 50.5 39.1 51.9 39.3 52.1 C39.6 51.9 40.1 51.9 40.4 52.1 C40.6 51.9 40.8 50.5 41.3 49.6 C41.9 48.6 44.6 45.8 45.1 43.8 C45.6 41.6 45.0 36.9 44.7 34.2 C44.4 31.4 43.1 26.0 42.9 24.5 C42.7 23.2 42.9 23.1 42.9 22.5 C42.0 22.3 35.9 22.3 35.0 22.5 Z" fill="#f0e6d2" stroke="#a1866a" stroke-width="1.5" stroke-linecap="round" stroke-linejoin="round" data-part="root" data-root-index="1"/>
    <path d="M23.1 22.5 C23.1 23.1 23.3 23.2 23.1 24.5 C22.8 26.0 21.5 31.4 21.1 34.2 C20.7 36.9 19.9 41.6 20.2 43.8 C20.6 45.8 23.1 48.6 23.7 49.6 C24.1 50.5 24.4 51.9 24.6 52.1 C24.9 51.9 25.4 51.9 25.7 52.1 C25.9 51.9 27.0 50.5 26.7 49.6 C26.2 48.6 22.2 45.8 22.1 43.8 C22.1 41.6 25.2 36.9 26.1 34.2 C27.1 31.4 28.7 26.0 29.0 24.5 C29.4 23.2 29.0 23.1 29.0 22.5 C28.4 22.3 23.8 22.3 23.1 22.5 Z" fill="#f0e6d2" stroke="#a1866a" stroke-width="1.5" stroke-linecap="round" stroke-linejoin="round" data-part="root" data-root-index="2"/>
    <path d="M21.6 4.0 C26.2 4.3 37.8 4.3 42.4 4.0 C46.0 5.7 46.2 13.3 46.4 15.9 C46.5 17.5 44.0 20.8 43.6 21.9 C43.2 22.9 43.1 23.6 42.9 24.5 C40.3 24.8 25.7 24.7 23.1 24.5 C22.8 23.9 22.7 23.3 22.4 22.7 C21.9 21.6 20.3 20.0 20.3 18.4 C20.1 14.6 21.2 8.3 21.6 4.0 Z" fill="#fbfdfe" stroke="#64748b" stroke-width="1.9" stroke-linecap="round" stroke-linejoin="round" data-part="crown"/>
    <path d="M23.5 12.0 L26.0 17.0 M39.0 12.0 L36.5 17.0 M32.0 14.5 V21.0 M28.5 15.0 L32.0 18.0 L35.5 15.0" fill="none" stroke="#94a3b8" stroke-width="0.9" stroke-opacity="0.55" stroke-linecap="round" data-part="surface"/>
    <path d="M23.1 23.7 C27.6 24.0 37.5 24.0 42.9 23.7" fill="none" stroke="#b39a7c" stroke-width="1.1" stroke-opacity="0.75" stroke-linecap="round" data-part="cervical"/>
  </g>
</svg>
