<svg xmlns="http://www.w3.org/2000/svg" viewBox="0 5 64 58.6" width="64" height="58.6" data-tooth-fdi="81" data-view="lateral" role="img">
  <title>Tooth 81 — primary (deciduous) lower right central incisor — lateral view</title>
  <desc>Standalone lateral (buccal/facial) anatomy for tooth 81 (primary (deciduous), lower right central incisor), generated from the app's anatomy registries. Base &quot;no record&quot; status only — no clinical status tint applied.</desc>
  <g>
    <path d="M27 23 C27.7 29 28.7 35 29.6 40.6 C29.9 41.1 30.1 41.1 30.4 40.6 C31.3 35 32.3 29 33 23 C31.3 22 28.7 22 27 23 Z" fill="#f0e6d2" stroke="#a1866a" stroke-width="1.5" stroke-linecap="round" stroke-linejoin="round" data-part="root" data-root-index="0"/>
    <path d="M35.5 9.5 C35.3 8.2 33.5 7.5 31 7.6 L28 7.8 C25.6 8.1 23.8 9.2 23.2 11.1 C22.6 13 23 15.1 23.9 17.1 C24.4 18.3 24.7 19.5 25.5 20.4 C26.4 21.5 27.5 22.2 28.7 22.5 L33.5 22.3 C34.5 21.8 35.2 20.8 35.7 19.4 C36.2 17.9 36.4 16 36.4 14 C36.4 12.3 36.1 10.7 35.5 9.5 Z" fill="#fbfdfe" stroke="#64748b" stroke-width="1.9" stroke-linecap="round" stroke-linejoin="round" data-part="crown"/>
    <path d="M26.5 10.5 L34 10 M29 8 V12 M32.5 7.8 V12.2" fill="none" stroke="#94a3b8" stroke-width="0.9" stroke-opacity="0.55" stroke-linecap="round" data-part="surface"/>
    <path d="M24.5 22.3 C27.5 23.9 31.5 23.9 34.5 21.3" fill="none" stroke="#b39a7c" stroke-width="1.1" stroke-opacity="0.75" stroke-linecap="round" data-part="cervical"/>
  </g>
</svg>
