<svg xmlns="http://www.w3.org/2000/svg" viewBox="0 1.3 64 81.2" width="64" height="81.2" data-tooth-fdi="82" data-view="lateral" role="img">
  <title>Tooth 82 — primary (deciduous) lower right lateral incisor — lateral view</title>
  <desc>Standalone lateral (buccal/facial) anatomy for tooth 82 (primary (deciduous), lower right lateral incisor), generated from the app's anatomy registries. Base &quot;no record&quot; status only — no clinical status tint applied.</desc>
  <g>
    <path d="M26.2 22.0 C25.9 27 26.7 33.5 28.0 40.5 C29.6 49 30.7 55.5 30.7 58.3 C31.0 59.5 31.6 60.0 32.05 60.0 C32.5 60.0 33.1 59.5 33.4 58.3 C33.4 55.5 34.5 49 36.1 40.5 C37.4 33.5 38.2 27 37.9 22.0 Z" fill="#f0e6d2" stroke="#a1866a" stroke-width="1.5" stroke-linecap="round" stroke-linejoin="round" data-part="root" data-root-index="0"/>
    <path d="M36.5 4.0 C37.4 4.1 38.4 4.9 38.8 5.5 C40.0 7.0 40.6 8.0 40.8 9.0 C41.1 11 40.9 13 40.6 15.0 C39.6 19 38.6 22 37.9 24.0 C34.0 25.3 30.0 25.3 26.2 24.0 C25.5 22.0 25.5 20.0 25.4 18.0 C25.3 15.0 25.2 13.0 25.2 12.0 C25.6 9.5 26.6 7.5 27.2 6.0 C27.8 4.9 27.4 4.5 28.0 4.3 C30.7 3.9 34.1 3.8 36.5 4.0 Z" fill="#fbfdfe" stroke="#64748b" stroke-width="1.9" stroke-linecap="round" stroke-linejoin="round" data-part="crown"/>
    <path d="M25.5 10.5 L40 10 M28.5 4.5 V12 M36 4.2 V12.5" fill="none" stroke="#94a3b8" stroke-width="0.9" stroke-opacity="0.55" stroke-linecap="round" data-part="surface"/>
    <path d="M24.5 23.3 C29 25.5 35.5 25.5 39.5 22.2" fill="none" stroke="#b39a7c" stroke-width="1.1" stroke-opacity="0.75" stroke-linecap="round" data-part="cervical"/>
  </g>
</svg>
