<svg xmlns="http://www.w3.org/2000/svg" viewBox="0 1.5 64 81.2" width="64" height="81.2" data-tooth-fdi="73" data-view="lateral" role="img">
  <title>Tooth 73 — primary (deciduous) lower left canine — lateral view</title>
  <desc>Standalone lateral (buccal/facial) anatomy for tooth 73 (primary (deciduous), lower left canine), generated from the app's anatomy registries. Base &quot;no record&quot; status only — no clinical status tint applied.</desc>
  <g transform="translate(64 0) scale(-1 1)">
    <path d="M25.0 25.0 C24.2 32 25.0 41 26.4 50 C27.9 59 27.3 66 26.0 69.0 C26.2 70.3 26.8 71.0 27.5 71.0 C28.2 71.0 28.8 70.3 29.0 69.0 C29.7 66 34.0 59 36.5 50 C39.0 41 39.8 32 39.3 25.0 Z" fill="#f0e6d2" stroke="#a1866a" stroke-width="1.5" stroke-linecap="round" stroke-linejoin="round" data-part="root" data-root-index="0"/>
    <path d="M34.0 4.0 C35.9 4.6 38.0 5.9 39.5 7.2 C40.9 8.1 41.7 8.0 42.0 8.0 C42.5 9.7 42.6 11.7 42.4 13.5 C41.7 19 40.4 23.5 39.3 27.0 C34.5 28.5 29.5 28.5 25.0 27.0 C24.0 24 22.9 21.5 22.9 20.0 C22.7 17.5 22.6 15 23.0 13.0 C23.5 10.5 24.3 8.5 25.8 6.7 C27.6 5.3 30.1 4.4 34.0 4.0 Z" fill="#fbfdfe" stroke="#64748b" stroke-width="1.9" stroke-linecap="round" stroke-linejoin="round" data-part="crown"/>
    <path d="M34 4.0 V14 M26 8 L34 4.0 L38 11" fill="none" stroke="#94a3b8" stroke-width="0.9" stroke-opacity="0.55" stroke-linecap="round" data-part="surface"/>
    <path d="M23.5 26.3 C28.5 28.7 35.5 28.7 41 24.8" fill="none" stroke="#b39a7c" stroke-width="1.1" stroke-opacity="0.75" stroke-linecap="round" data-part="cervical"/>
  </g>
</svg>
