<svg xmlns="http://www.w3.org/2000/svg" viewBox="0 5.7 64 81.2" width="64" height="81.2" data-tooth-fdi="65" data-view="lateral" role="img">
  <title>Tooth 65 — primary (deciduous) upper left second molar — lateral view</title>
  <desc>Standalone lateral (buccal/facial) anatomy for tooth 65 (primary (deciduous), upper left second molar), generated from the app's anatomy registries. Base &quot;no record&quot; status only — no clinical status tint applied.</desc>
  <g transform="translate(0 88) scale(1 -1) translate(64 0) scale(-1 1)">
    <path d="M27.0 24.0 C27.1 27.0 27.2 29.9 27.4 32.675 C27.0 38 26.5 44.5 27.2 52 C27.7 58 28.8 64 30.4 68.5 C30.7 69.7 31.3 70.5 32.0 70.5 C32.7 70.5 33.3 69.7 33.6 68.5 C35.2 64 36.3 58 36.8 52 C37.5 44.5 37.0 38 36.6 32.675 C36.8 29.9 36.9 27.0 37.0 24.0 Z" fill="#f0e6d2" stroke="#a1866a" stroke-width="1.5" stroke-linecap="round" stroke-linejoin="round" data-part="root" data-root-index="0"/>
    <path d="M32.0 24.0 C34.5 23.9 41.0 23.8 43.7 24.0 C43.8 27.0 43.9 29.9 43.9 32.675 C45.5 38 47.8 43 48.6 48.5 C48.3 53 47.0 60 44.8 68.0 C44.6 69.0 44.2 69.5 43.5 69.5 C42.8 69.5 42.4 69.0 42.2 68.0 C40.0 60 38.7 53 38.0 48.5 C38.8 43 36.5 38 33.5 32.675 C33.5 29.9 32.7 27.0 32.0 24.0 Z" fill="#f0e6d2" stroke="#a1866a" stroke-width="1.5" stroke-linecap="round" stroke-linejoin="round" data-part="root" data-root-index="1"/>
    <path d="M32.0 24.0 C29.5 23.9 23.0 23.8 20.3 24.0 C20.2 27.0 20.1 29.9 20.1 32.675 C18.5 38 16.2 43 15.4 48.5 C15.7 53 17.0 60 19.2 68.0 C19.4 69.0 19.8 69.5 20.5 69.5 C21.2 69.5 21.6 69.0 21.8 68.0 C24.0 60 25.3 53 26.0 48.5 C25.2 43 27.5 38 30.5 32.675 C30.5 29.9 31.3 27.0 32.0 24.0 Z" fill="#f0e6d2" stroke="#a1866a" stroke-width="1.5" stroke-linecap="round" stroke-linejoin="round" data-part="root" data-root-index="2"/>
    <path d="M45.5 4.0 C42.7 3.6 38.7 4.5 35.7 7.1 C34.3 8.4 33.4 8.7 32.0 8.7 C30.6 8.7 29.7 8.4 28.3 7.1 C25.0 4.5 21.0 3.7 18.5 4.7 C16.5 6.6 15.0 12.8 14.9 19.0 C15.3 20.5 15.6 22 15.7 23.0 C15.9 24.3 18.0 25.4 20.3 26.0 C27.5 26.7 36.5 26.7 43.7 26.0 C44.6 24.7 45.5 23.6 45.7 23.0 C45.9 22 46.0 20.5 46.1 19.0 C46.3 13.5 46.0 8 45.5 4.0 Z" fill="#fbfdfe" stroke="#64748b" stroke-width="1.9" stroke-linecap="round" stroke-linejoin="round" data-part="crown"/>
    <path d="M18.5 4.7 L32 8.7 L45.5 4.0 M28.3 7.1 L32 8.7 L35.7 7.1" fill="none" stroke="#94a3b8" stroke-width="0.9" stroke-opacity="0.55" stroke-linecap="round" data-part="surface"/>
    <path d="M18 25.3 C26 28 38 28 46 24.3" fill="none" stroke="#b39a7c" stroke-width="1.1" stroke-opacity="0.75" stroke-linecap="round" data-part="cervical"/>
  </g>
</svg>
